<?xml version="1.0" encoding="UTF-8" standalone="no"?>
<svg width="67px" height="110px" viewBox="0 0 67 110" version="1.1" xmlns="http://www.w3.org/2000/svg" xmlns:xlink="http://www.w3.org/1999/xlink" xmlns:sketch="http://www.bohemiancoding.com/sketch/ns">
    <!-- Generator: Sketch 3.4.4 (17249) - http://www.bohemiancoding.com/sketch -->
    <title>Slice 1</title>
    <desc>Created with Sketch.</desc>
    <defs></defs>
    <g id="Page-1" stroke="none" stroke-width="1" fill="none" fill-rule="evenodd" sketch:type="MSPage">
        <path d="M42.976,22.865 C41.5,18.731 38.399,16.515 33.525,16.515 C28.651,16.515 23.925,18.583 20.381,22.275 L20.381,59.048 C23.04,61.264 27.322,63.479 31.309,63.479 C41.057,63.479 44.897,56.833 44.897,39.554 C44.897,32.317 44.306,26.558 42.976,22.865 L42.976,22.865 L42.976,22.865 Z M55.973,70.568 C50.804,76.033 44.01,79.134 35.741,79.134 C29.833,79.134 24.221,77.657 19.938,75.146 C20.233,76.919 20.233,79.134 20.233,81.349 L20.233,104.978 L1.181,110 L1.181,22.57 C1.181,12.675 1.034,9.869 0,3.519 L17.575,0.417 C18.314,3.076 18.757,5.143 18.904,7.506 C22.301,3.371 29.833,0.417 37.512,0.417 C42.829,0.417 48.294,2.19 52.428,4.996 C60.552,10.46 66.459,20.207 66.459,37.634 C66.459,53.88 63.801,62.15 55.973,70.568 L55.973,70.568 L55.973,70.568 Z" id="Fill-1" fill="#DF5278" sketch:type="MSShapeGroup"></path>
    </g>
</svg>