<?xml version="1.0" encoding="UTF-8" standalone="no"?>
<svg width="68px" height="112px" viewBox="0 0 68 112" version="1.1" xmlns="http://www.w3.org/2000/svg" xmlns:xlink="http://www.w3.org/1999/xlink" xmlns:sketch="http://www.bohemiancoding.com/sketch/ns">
    <!-- Generator: Sketch 3.4.4 (17249) - http://www.bohemiancoding.com/sketch -->
    <title>Slice 1</title>
    <desc>Created with Sketch.</desc>
    <defs></defs>
    <g id="Page-1" stroke="none" stroke-width="1" fill="none" fill-rule="evenodd" sketch:type="MSPage">
        <path d="M45.66,53.832 C41.968,50.583 38.424,48.958 34.879,48.958 C26.018,48.958 22.178,56.342 22.178,73.179 C22.178,89.424 25.575,94.741 35.913,94.741 C39.605,94.741 43.74,92.23 45.66,89.867 L45.66,53.832 L45.66,53.832 L45.66,53.832 Z M50.091,109.509 C49.5,108.328 49.205,107.146 48.909,105.079 C44.036,109.362 38.276,111.43 31.482,111.43 C12.284,111.43 0.173,96.513 0.173,73.031 C0.173,49.401 13.317,33.156 32.516,33.156 C37.98,33.156 42.263,34.485 45.955,37.438 C45.66,35.814 45.365,30.645 45.365,26.215 L45.365,0.222 L65.008,3.323 L65.008,81.892 C65.008,100.5 66.484,106.556 67.813,109.509 L50.091,109.509 L50.091,109.509 L50.091,109.509 Z" id="Fill-12" fill="#DF5278" sketch:type="MSShapeGroup"></path>
    </g>
</svg>