<?xml version="1.0" encoding="UTF-8" standalone="no"?>
<svg width="68px" height="111px" viewBox="0 0 68 111" version="1.1" xmlns="http://www.w3.org/2000/svg" xmlns:xlink="http://www.w3.org/1999/xlink" xmlns:sketch="http://www.bohemiancoding.com/sketch/ns">
    <!-- Generator: Sketch 3.4.4 (17249) - http://www.bohemiancoding.com/sketch -->
    <title>Slice 1</title>
    <desc>Created with Sketch.</desc>
    <defs></defs>
    <g id="Page-1" stroke="none" stroke-width="1" fill="none" fill-rule="evenodd" sketch:type="MSPage">
        <path d="M43.965,57.967 C42.488,51.469 38.352,48.368 33.183,48.368 C28.015,48.368 24.47,51.616 21.959,54.423 L21.959,89.277 C24.618,91.64 27.719,94.15 33.036,94.15 C37.909,94.15 41.011,92.23 42.635,88.243 C44.408,84.107 44.85,80.12 44.85,70.816 C44.85,64.022 44.703,61.216 43.965,57.967 L43.965,57.967 L43.965,57.967 Z M53.268,105.079 C48.1,109.214 42.931,110.986 36.728,110.986 C29.344,110.986 24.174,108.771 19.892,104.045 C19.301,106.704 19.154,107.442 17.824,109.509 L0.102,109.509 C1.578,106.112 2.021,103.897 2.021,93.411 L2.021,23.408 C2.021,14.104 1.727,9.083 0.693,4.8 L20.925,0.074 C21.516,5.243 21.665,8.344 21.665,13.514 L21.665,31.383 C21.665,33.599 21.516,36.848 21.221,38.029 C25.061,33.894 30.377,31.974 37.319,31.974 C55.779,31.974 67.299,46.743 67.299,70.373 C67.299,85.732 62.573,97.695 53.268,105.079 L53.268,105.079 L53.268,105.079 Z" id="Fill-5" fill="#DF5278" sketch:type="MSShapeGroup"></path>
    </g>
</svg>