<?xml version="1.0" encoding="UTF-8" standalone="no"?>
<svg width="59px" height="81px" viewBox="0 0 59 81" version="1.1" xmlns="http://www.w3.org/2000/svg" xmlns:xlink="http://www.w3.org/1999/xlink" xmlns:sketch="http://www.bohemiancoding.com/sketch/ns">
    <!-- Generator: Sketch 3.4.4 (17249) - http://www.bohemiancoding.com/sketch -->
    <title>Slice 1</title>
    <desc>Created with Sketch.</desc>
    <defs></defs>
    <g id="Page-1" stroke="none" stroke-width="1" fill="none" fill-rule="evenodd" sketch:type="MSPage">
        <path d="M51.549,75.556 C46.232,78.657 40.325,80.282 33.088,80.282 C12.265,80.282 0.154,65.808 0.154,41.292 C0.154,23.865 6.801,12.346 15.661,6.291 C20.683,2.894 28.067,0.679 34.418,0.679 C39.438,0.679 44.903,1.86 49.039,4.076 C51.844,5.553 53.173,6.586 56.423,9.392 L46.823,22.389 C42.836,18.697 38.553,16.481 34.861,16.481 C25.999,16.481 22.011,24.161 22.011,41.884 C22.011,51.778 23.341,57.685 25.852,60.935 C27.92,63.593 31.316,65.218 34.712,65.218 C39.291,65.218 43.426,63.298 48.3,59.015 L49.481,57.981 L58.49,69.944 C55.537,72.897 54.207,73.931 51.549,75.556" id="Fill-10" fill="#DF5278" sketch:type="MSShapeGroup"></path>
    </g>
</svg>