<?xml version="1.0" encoding="UTF-8" standalone="no"?>
<svg width="70px" height="80px" viewBox="0 0 70 80" version="1.1" xmlns="http://www.w3.org/2000/svg" xmlns:xlink="http://www.w3.org/1999/xlink" xmlns:sketch="http://www.bohemiancoding.com/sketch/ns">
    <!-- Generator: Sketch 3.4.4 (17249) - http://www.bohemiancoding.com/sketch -->
    <title>Slice 1</title>
    <desc>Created with Sketch.</desc>
    <defs></defs>
    <g id="Page-1" stroke="none" stroke-width="1" fill="none" fill-rule="evenodd" sketch:type="MSPage">
        <path d="M43.738,19.026 C41.819,16.515 38.717,15.038 35.173,15.038 C30.446,15.038 26.607,17.992 24.982,22.718 C23.653,26.706 22.915,32.022 22.915,39.554 C22.915,48.268 23.8,54.766 25.426,58.606 C27.198,62.741 31.628,64.808 35.468,64.808 C44.034,64.808 47.726,57.129 47.726,39.259 C47.726,29.068 46.396,22.423 43.738,19.026 L43.738,19.026 L43.738,19.026 Z M59.836,68.648 C54.077,75.146 46.545,79.134 34.878,79.134 C14.349,79.134 0.909,63.774 0.909,39.997 C0.909,16.22 14.497,0.417 34.878,0.417 C45.658,0.417 54.077,4.109 60.574,11.789 C66.63,18.878 69.288,27.148 69.288,39.406 C69.288,52.403 66.334,61.264 59.836,68.648 L59.836,68.648 L59.836,68.648 Z" id="Fill-11" fill="#DF5278" sketch:type="MSShapeGroup"></path>
    </g>
</svg>