<?xml version="1.0" encoding="UTF-8" standalone="no"?>
<svg width="51px" height="132px" viewBox="0 0 51 132" version="1.1" xmlns="http://www.w3.org/2000/svg" xmlns:xlink="http://www.w3.org/1999/xlink" xmlns:sketch="http://www.bohemiancoding.com/sketch/ns">
    <!-- Generator: Sketch 3.4.4 (17249) - http://www.bohemiancoding.com/sketch -->
    <title>Slice 1</title>
    <desc>Created with Sketch.</desc>
    <defs></defs>
    <g id="Page-1" stroke="none" stroke-width="1" fill="none" fill-rule="evenodd" sketch:type="MSPage">
        <path d="M34.56,84.507 L34.56,110.057 C34.56,125.417 26.437,131.472 15.508,131.472 L0.001,131.472 L0.001,114.635 L7.238,114.635 C16.247,114.635 16.837,109.171 16.837,105.183 L16.837,81.406 C16.837,67.671 25.403,66.637 31.606,66.047 L31.606,65.751 C25.403,65.308 16.837,64.274 16.837,50.539 L16.837,26.614 C16.837,22.627 16.247,17.162 7.238,17.162 L0.001,17.162 L0.001,0.326 L15.951,0.326 C25.994,0.326 34.56,6.529 34.56,21.888 L34.56,47.291 C34.56,56.447 46.375,57.481 50.51,57.481 L50.51,74.317 C46.375,74.317 34.56,75.351 34.56,84.507" id="Fill-14" fill="#DF5278" sketch:type="MSShapeGroup"></path>
    </g>
</svg>