<?xml version="1.0" encoding="UTF-8" standalone="no"?>
<svg width="33px" height="112px" viewBox="0 0 33 112" version="1.1" xmlns="http://www.w3.org/2000/svg" xmlns:xlink="http://www.w3.org/1999/xlink" xmlns:sketch="http://www.bohemiancoding.com/sketch/ns">
    <!-- Generator: Sketch 3.4.4 (17249) - http://www.bohemiancoding.com/sketch -->
    <title>Slice 1</title>
    <desc>Created with Sketch.</desc>
    <defs></defs>
    <g id="Page-1" stroke="none" stroke-width="1" fill="none" fill-rule="evenodd" sketch:type="MSPage">
        <path d="M20.63,111.282 C12.212,111.282 5.418,107.294 3.054,100.944 C1.578,97.104 1.282,94.741 1.282,83.959 L1.282,27.544 C1.282,17.649 0.988,11.593 0.249,4.8 L20.481,0.222 C21.22,4.357 21.515,9.23 21.515,19.864 L21.515,78.791 C21.515,91.787 21.664,93.559 22.845,95.627 C23.583,96.956 25.207,97.695 26.833,97.695 C27.571,97.695 28.014,97.695 29.048,97.399 L32.444,109.214 C29.048,110.543 24.912,111.282 20.63,111.282" id="Fill-7" fill="#DF5278" sketch:type="MSShapeGroup"></path>
    </g>
</svg>