<?xml version="1.0" encoding="UTF-8" standalone="no"?>
<svg width="66px" height="80px" viewBox="0 0 66 80" version="1.1" xmlns="http://www.w3.org/2000/svg" xmlns:xlink="http://www.w3.org/1999/xlink" xmlns:sketch="http://www.bohemiancoding.com/sketch/ns">
    <!-- Generator: Sketch 3.4.4 (17249) - http://www.bohemiancoding.com/sketch -->
    <title>Slice 1</title>
    <desc>Created with Sketch.</desc>
    <defs></defs>
    <g id="Page-1" stroke="none" stroke-width="1" fill="none" fill-rule="evenodd" sketch:type="MSPage">
        <path d="M44.739,30.545 C44.739,24.933 44.148,21.98 42.375,19.173 C40.456,16.22 37.65,14.743 33.662,14.743 C26.131,14.743 21.848,20.65 21.848,31.136 L21.848,31.432 L44.739,31.432 L44.739,30.545 L44.739,30.545 L44.739,30.545 Z M21.552,45.905 L21.552,46.495 C21.552,58.163 27.312,64.808 37.502,64.808 C44.296,64.808 50.646,62.298 56.702,57.277 L64.381,69.091 C55.668,76.18 46.511,79.577 35.878,79.577 C14.168,79.577 0.138,64.218 0.138,40.44 C0.138,26.853 2.944,17.844 9.589,10.46 C15.792,3.519 23.324,0.27 33.367,0.27 C42.081,0.27 50.351,3.223 55.225,8.245 C62.166,15.334 65.267,25.524 65.267,41.326 L65.267,45.905 L21.552,45.905 L21.552,45.905 L21.552,45.905 Z" id="Fill-4" fill="#DF5278" sketch:type="MSShapeGroup"></path>
    </g>
</svg>