<?xml version="1.0" encoding="UTF-8" standalone="no"?>
<svg width="52px" height="132px" viewBox="0 0 52 132" version="1.1" xmlns="http://www.w3.org/2000/svg" xmlns:xlink="http://www.w3.org/1999/xlink" xmlns:sketch="http://www.bohemiancoding.com/sketch/ns">
    <!-- Generator: Sketch 3.4.4 (17249) - http://www.bohemiancoding.com/sketch -->
    <title>Slice 1</title>
    <desc>Created with Sketch.</desc>
    <defs></defs>
    <g id="Page-1" stroke="none" stroke-width="1" fill="none" fill-rule="evenodd" sketch:type="MSPage">
        <path d="M35.513,131.472 C25.028,131.472 16.462,125.268 16.462,109.909 L16.462,84.507 C16.462,75.351 4.203,74.317 0.511,74.317 L0.511,57.481 C4.203,57.481 16.462,56.447 16.462,47.291 L16.462,21.741 C16.462,6.382 24.584,0.326 35.513,0.326 L51.02,0.326 L51.02,17.162 L43.783,17.162 C34.774,17.162 34.184,22.627 34.184,26.614 L34.184,50.392 C34.184,64.126 25.618,65.16 19.415,65.751 L19.415,66.047 C25.618,66.489 34.184,67.523 34.184,81.258 L34.184,105.183 C34.184,109.171 34.774,114.635 43.783,114.635 L51.02,114.635 L51.02,131.472 L35.513,131.472" id="Fill-9" fill="#DF5278" sketch:type="MSShapeGroup"></path>
    </g>
</svg>